<svg width="90" height="28" viewBox="0 0 90 28" fill="none" xmlns="http://www.w3.org/2000/svg">
<path d="M68.1131 18.9442C68.1442 19.9996 68.0025 20.9853 67.6177 21.9226C66.9556 23.5363 65.658 24.3768 63.9144 24.3485C62.1951 24.3212 60.876 23.421 60.313 21.779C59.6888 19.9588 59.6694 18.1 60.281 16.2741C60.8907 14.4518 62.2513 13.5283 64.12 13.5594C65.847 13.5876 67.1748 14.6091 67.7546 16.368C68.0346 17.2183 68.1528 18.0933 68.1131 18.9442ZM67.4463 10.5222C65.4556 9.77291 63.401 9.73795 61.3538 10.268C59.0152 10.8745 57.2562 12.2344 56.1774 14.4307C55.4796 15.8536 55.2334 17.3663 55.213 19.0364C55.2432 19.6383 55.2558 20.3487 55.3875 21.0492C55.9043 23.7987 57.2774 25.9224 59.8605 27.1544C61.322 27.8511 62.8773 28.0285 64.4786 27.9965C68.08 27.9236 70.9558 25.9485 72.1613 22.6719C72.7992 20.9379 72.9222 19.1399 72.6603 17.3295C72.1931 14.102 70.5825 11.7034 67.4463 10.5222Z" fill="#404040"/>
<path d="M11.8146 10.5496C9.79498 9.83817 7.72369 9.85074 5.6449 10.1634C4.13292 10.3903 2.70246 10.8701 1.41036 11.737C0.419968 12.4024 -0.00947918 13.3085 0.000158496 14.5142C0.0264579 18.1816 0.007999 21.8487 0.0120828 25.5167C0.0120828 25.7939 0.028418 26.0741 0.066152 26.3482C0.191278 27.2552 0.616642 27.7125 1.49972 27.8993C2.38638 28.086 3.25965 27.9857 4.14077 27.8198C4.51565 27.7489 4.6037 27.6091 4.60109 27.2505C4.58949 25.7153 4.59129 24.1798 4.59227 22.6448C4.59325 22.1337 4.59325 21.6228 4.59325 21.1107C4.59325 20.6035 4.59423 20.0951 4.59504 19.5882V19.5528C4.59619 18.5609 4.59815 17.5702 4.59423 16.5795C4.59227 16.0595 4.58949 15.5398 4.58459 15.0198C4.58165 14.6531 4.70089 14.4633 5.02155 14.3112C6.09836 13.7981 7.22956 13.5728 8.40797 13.6586C9.99361 13.7736 10.9192 14.4928 11.1797 15.7854C11.2535 16.15 11.2659 16.5332 11.2673 16.9078C11.2738 19.8553 11.2699 22.802 11.272 25.7498C11.272 25.961 11.2815 26.175 11.3079 26.3846C11.4174 27.2641 11.8525 27.7303 12.7044 27.901C13.6087 28.0841 14.4973 27.9857 15.3938 27.8116C15.7236 27.7469 15.803 27.621 15.803 27.3026C15.7934 23.5866 15.8125 19.8692 15.7912 16.1531C15.7747 13.4167 14.3539 11.4441 11.8146 10.5496Z" fill="#404040"/>
<path d="M86.9701 18.5652C85.6723 17.7866 84.2536 17.4033 82.8113 17.0522C82.0767 16.8738 81.3234 16.7507 80.6295 16.432C80.0955 16.1876 79.7351 15.8032 79.7301 15.174C79.7253 14.5342 80.0646 14.1157 80.6121 13.8452C81.0047 13.6506 81.4253 13.54 81.8624 13.498C83.6815 13.3218 85.3854 13.7496 87.0098 14.5245C87.3481 14.6866 87.5273 14.6235 87.7445 14.3705C88.73 13.2239 88.5168 11.8273 87.2017 10.9852C86.2567 10.3795 85.1907 10.1131 84.0905 10.011C82.1512 9.8318 80.2137 9.79978 78.3839 10.6208C76.4786 11.4748 75.3184 12.8809 75.2611 15.0479C75.2031 17.2298 76.2711 18.6669 78.2192 19.5376C79.4375 20.0819 80.7373 20.3241 82.0222 20.6257C82.6978 20.7845 83.384 20.9164 83.9481 21.3594C84.8622 22.0757 84.8029 23.344 83.8328 23.9762C83.4015 24.2563 82.9188 24.3638 82.4167 24.4182C80.3243 24.6448 78.4237 24.076 76.6542 23.008C76.3534 22.8258 76.1723 22.8704 75.9406 23.0777C74.9365 23.982 74.9336 25.5345 75.9485 26.4592C76.4204 26.8897 76.9766 27.1832 77.5758 27.3908C78.9171 27.8559 80.3041 28.0237 81.5493 27.9974C83.4634 28.0127 85.1548 27.7997 86.72 26.9369C89.8591 25.2072 89.8426 20.2885 86.9701 18.5652Z" fill="#404040"/>
<path d="M33.587 16.1596C34.8129 16.1828 36.04 16.1779 37.2669 16.1654C38.1683 16.1559 38.7255 15.6761 38.8292 14.8327C38.9076 14.1999 38.8322 13.5816 38.6082 12.9789C38.4968 12.6773 38.3273 12.5708 37.9978 12.5746C36.5293 12.594 35.0602 12.5756 33.5909 12.5893C33.2701 12.5919 33.0994 12.5212 33.141 12.1646C33.1575 12.0231 33.1314 11.8758 33.121 11.7306C33.0481 10.7282 32.6265 10.2397 31.6399 10.048C30.7703 9.87832 29.9118 9.97421 29.0493 10.1498C28.7167 10.2174 28.6451 10.3417 28.6469 10.6516C28.6595 12.7335 28.6538 14.8154 28.6538 16.8973C28.6538 18.9142 28.6451 20.9321 28.6556 22.9487C28.6683 25.3313 29.8497 26.9545 32.043 27.6234C33.2489 27.9916 34.4835 28.0633 35.7318 27.9521C36.4102 27.8918 37.0731 27.7541 37.673 27.4111C38.876 26.7217 39.1929 25.2349 38.3903 24.1156C38.2361 23.9007 38.1062 23.8298 37.8349 23.9374C37.0141 24.2633 36.1573 24.3824 35.2723 24.3157C33.8158 24.204 33.1461 23.4964 33.145 22.0425C33.145 20.2352 33.1556 18.4276 33.1373 16.62C33.1334 16.2634 33.2177 16.1518 33.587 16.1596Z" fill="#404040"/>
<path d="M52.1186 10.2274C51.3422 9.96004 50.5348 9.94534 49.7268 9.96576C47.6652 10.0169 45.6957 10.4401 43.8911 11.4949C42.7387 12.1677 42.1379 13.1367 42.1524 14.5427C42.1903 18.2437 42.1639 21.9457 42.167 25.6468C42.167 25.8751 42.1794 26.1055 42.2058 26.3327C42.3143 27.2621 42.7524 27.7318 43.6567 27.9097C44.5279 28.0808 45.3827 27.9835 46.2483 27.827C46.6717 27.751 46.7599 27.5861 46.756 27.1893C46.7386 25.1922 46.7484 23.1944 46.7484 21.1961C46.7484 19.1813 46.756 17.1664 46.7416 15.1526C46.7386 14.7944 46.8355 14.6056 47.1786 14.4538C48.9027 13.6985 50.6909 13.5399 52.5333 13.7666C52.7215 13.789 52.926 13.9335 53.1082 13.7032C54.0375 12.5299 53.5278 10.7126 52.1186 10.2274Z" fill="#404040"/>
<path d="M24.489 11.9474C24.4849 10.7798 24.0081 10.2387 22.8664 10.0295C22.0727 9.88313 21.2951 9.99176 20.5122 10.1206C20.0888 10.1915 19.9472 10.3534 19.9493 10.8049C19.9694 15.5811 19.9607 20.9733 19.9629 25.7495C19.9629 25.9591 19.9647 26.1711 19.9939 26.3776C20.1265 27.2994 20.5529 27.7355 21.4707 27.9147C22.3275 28.0815 23.1678 27.9767 24.0167 27.8305C24.4142 27.7627 24.5014 27.6018 24.4996 27.2316C24.4849 24.7949 24.4918 22.3574 24.4918 19.921C24.4918 17.468 24.4975 14.4008 24.489 11.9474Z" fill="#404040"/>
<path d="M19.2497 3.60429C19.1738 2.29945 20.1408 0.624287 21.8429 0.138646C21.9424 0.110223 22.0452 0.0871906 22.1495 0.0670986C21.9635 0.0311618 21.7737 0.0073123 21.5795 0.0017581C19.1945 -0.066359 17.7814 2.03678 17.8727 3.60429C17.8583 5.76297 19.4025 7.31006 21.5621 7.3032C21.7815 7.30238 21.9955 7.27837 22.2044 7.23851C22.0961 7.21924 21.9891 7.19751 21.8851 7.1704C20.2957 6.7563 19.2378 5.39151 19.2497 3.60429Z" fill="#F3AD9C"/>
<path d="M22.9563 0.00127316C22.6729 -0.00673103 22.4044 0.0176086 22.1494 0.0666137C22.045 0.0867057 21.9423 0.109901 21.8428 0.138324C20.1408 0.623965 19.1736 2.29896 19.2496 3.60381C19.2377 5.39102 20.2957 6.75582 21.8851 7.16991C21.9891 7.19703 22.096 7.21891 22.2043 7.23803C22.4398 7.27984 22.6844 7.30353 22.939 7.30271C24.9167 7.29585 26.5533 5.67297 26.5804 3.69038C26.6077 1.7127 24.9497 0.058609 22.9563 0.00127316Z" fill="#EF4B23"/>
</svg>
